<svg width="139" height="119" xmlns="http://www.w3.org/2000/svg"><g fill="none" fill-rule="evenodd"><path d="M69.161 28.99c-5.811-.011-10.511-4.795-10.499-10.68.011-5.89 4.733-10.656 10.542-10.645 5.811.014 10.514 4.795 10.499 10.686-.012 5.888-4.729 10.651-10.542 10.639zM95.23.201L30.514.204s-5.335-.296-4.1 5.362l10.992 50.343s1.236 5.663 6.476 4.512l12.079-3.568.052-.622c.74-9.528-.09-12.193-1.118-16.892-1.961-8.967-13.796-22.226-14.859-23.179-1.033-.929-1.407-3.117 2.389-1.211C58.083 22.814 68.799 37.17 69.807 37.14c1.547-.048 20.698-26.344 28.336-34.392.426-.453.837-.825 1.218-1.127C98.333.804 96.982.201 95.23.201zm7.027 5.815s-.262-.958-.934-2.095C91.741 23.047 85.927 35.688 84.916 48.3l23.607-6.969s5.237-1.154 3.546-6.672l-9.812-28.643zm36.507 91.604H.942h137.822z" fill="#FFFFFE" fill-rule="nonzero"/><path d="M138.764 97.62H.942" stroke="#FFFFFE" stroke-width=".934"/><path d="M5.868 66.91h3.524v5.978h5.359V66.91h3.501v15.529h-3.501V75.96H9.392v6.479H5.868V66.91zm20.11 12.981c1.427 0 2.168-1.312 2.168-3.359 0-2.047-.741-3.358-2.168-3.358-1.452 0-2.168 1.311-2.168 3.358s.716 3.359 2.168 3.359zm0-9.551c2.976 0 5.74 2.263 5.74 6.192 0 3.93-2.764 6.192-5.74 6.192-3 0-5.764-2.262-5.764-6.192 0-3.929 2.764-6.192 5.764-6.192zm12.819 9.526c1.216 0 2.192-1.048 2.192-3.476 0-2.12-.644-3.193-2.047-3.193-.716 0-1.334.334-2.026 1.073v4.834c.619.572 1.285.762 1.881.762zm-1.881 3.501v3.453h-3.5V70.626h2.859l.236 1.167h.096c.928-.834 2.12-1.453 3.357-1.453 2.858 0 4.621 2.357 4.621 6.002 0 4.049-2.429 6.382-4.977 6.382-1.026 0-1.978-.452-2.81-1.239l.118 1.882zm16.369-8.05c0-1.357-.572-2.31-1.975-2.31-1.098 0-2.05.738-2.286 2.31h4.261zm-2.047-4.977c3.357 0 5.025 2.453 5.025 5.669 0 .618-.072 1.19-.145 1.476h-7.073c.312 1.786 1.502 2.572 3.072 2.572.883 0 1.692-.262 2.55-.786l1.167 2.12c-1.216.833-2.788 1.333-4.191 1.333-3.382 0-5.979-2.286-5.979-6.192 0-3.835 2.74-6.192 5.574-6.192zm13.344-3.811c1.857 0 3.333.906 4.264 1.93l-1.121 1.262c-.832-.881-1.833-1.452-3.119-1.452-2.978 0-4.954 2.428-4.954 6.309 0 3.931 1.881 6.407 4.858 6.407 1.478 0 2.573-.619 3.573-1.738l1.119 1.215c-1.214 1.429-2.763 2.262-4.738 2.262-3.932 0-6.859-3.001-6.859-8.097 0-5.025 2.976-8.098 6.977-8.098zm6.58-1.048h1.953v4.622l-.072 2.379c1.097-1.046 2.265-1.905 3.859-1.905 2.428 0 3.526 1.573 3.526 4.526v7.336h-1.954v-7.075c0-2.167-.667-3.094-2.192-3.094-1.189 0-2 .618-3.167 1.785v8.384h-1.953V65.481zm15.631 15.671c1.119 0 2.048-.547 3.167-1.547V76.39c-3.881.475-5.19 1.427-5.19 2.905 0 1.31.88 1.857 2.023 1.857zm3.167-6.049c0-1.477-.5-2.905-2.381-2.905-1.357 0-2.549.618-3.453 1.238l-.786-1.357c1.072-.691 2.691-1.502 4.548-1.502 2.834 0 4.025 1.883 4.025 4.764v7.098h-1.618l-.167-1.382h-.048c-1.119.905-2.406 1.667-3.835 1.667-1.953 0-3.405-1.214-3.405-3.286 0-2.525 2.19-3.787 7.12-4.335zm4.94-4.239h1.618l.167 1.667h.071c1.096-1.095 2.287-1.954 3.883-1.954 2.429 0 3.524 1.573 3.524 4.526v7.336h-1.954v-7.075c0-2.167-.665-3.094-2.189-3.094-1.192 0-2.002.618-3.169 1.785v8.384H94.9V70.864zm12.319 0h1.619l.166 1.667h.072c1.095-1.095 2.286-1.954 3.883-1.954 2.429 0 3.524 1.573 3.524 4.526v7.336h-1.954v-7.075c0-2.167-.666-3.094-2.19-3.094-1.191 0-2.001.618-3.166 1.785v8.384h-1.954V70.864zm19.562 4.93c0-2.358-1.048-3.668-2.858-3.668-1.62 0-3.097 1.333-3.335 3.668h6.193zm-2.906-5.217c2.954 0 4.621 2.12 4.621 5.432 0 .403-.024.785-.072 1.07h-7.812c.142 2.501 1.645 4.073 3.859 4.073 1.095 0 2.023-.357 2.882-.905l.689 1.286c-1 .644-2.237 1.191-3.81 1.191-3.096 0-5.549-2.262-5.549-6.05 0-3.786 2.549-6.097 5.192-6.097zm6.771-5.096h1.951v14.766c0 .619.263.858.55.858.118 0 .213 0 .426-.048l.263 1.476c-.263.119-.596.191-1.119.191-1.476 0-2.071-.929-2.071-2.62V65.481z" fill="#FFFFFE" fill-rule="nonzero"/><text fill="#FFFFFE" font-family="LucidaGrande, Lucida Grande" font-size="14.259"><tspan x="49.655" y="117.688">SUOMI</tspan></text></g></svg>